<?xml version="1.0" standalone="no"?>
<!DOCTYPE svg PUBLIC "-//W3C//DTD SVG 20010904//EN"
 "http://www.w3.org/TR/2001/REC-SVG-20010904/DTD/svg10.dtd">
<svg version="1.0" xmlns="http://www.w3.org/2000/svg"
 width="1100.000000pt" height="580.000000pt" viewBox="0 0 1100.000000 580.000000"
 preserveAspectRatio="xMidYMid meet">
<metadata>
Created by potrace 1.16, written by Peter Selinger 2001-2019
</metadata>
<g transform="translate(0.000000,580.000000) scale(0.100000,-0.100000)"
fill="#000000" stroke="none">
<path d="M0 3863 l0 -1937 33 32 c36 35 67 42 67 15 0 -50 -65 -223 -89 -237
-8 -6 -11 -114 -11 -388 1 -374 2 -379 19 -344 33 64 34 94 2 64 -11 -11 -12
-8 -6 12 4 14 11 29 16 35 5 5 9 30 9 56 0 26 5 51 10 54 6 3 10 13 10 21 0
27 55 77 115 104 76 34 250 93 335 114 185 45 364 59 556 46 76 -6 143 -15
148 -20 6 -6 19 -10 30 -10 34 -1 -41 -30 -78 -30 -69 -1 -242 -65 -355 -131
-39 -23 -53 -19 -16 5 29 19 33 46 8 46 -10 0 -33 -9 -51 -20 -18 -11 -41 -20
-51 -20 -11 0 -21 -6 -24 -12 -3 -10 -12 -10 -41 1 -37 13 -39 12 -75 -22 -20
-19 -89 -60 -153 -91 -66 -32 -124 -66 -132 -79 -19 -29 -76 -134 -122 -227
-20 -41 -63 -108 -96 -147 l-58 -73 0 -340 0 -341 873 3 c675 2 871 6 870 15
-2 9 25 12 100 13 56 0 109 1 117 2 8 1 30 0 49 0 28 -2 32 -4 21 -17 -11 -13
15 -15 226 -15 l237 0 -22 24 c-14 15 -19 26 -12 30 6 4 23 -7 38 -24 l28 -30
1797 2 1796 3 -20 40 c-60 121 -65 429 -10 588 9 26 20 47 24 47 4 0 8 6 8 14
0 23 43 96 56 96 7 0 14 6 17 13 2 6 2 0 0 -16 -6 -34 8 -35 24 -1 8 18 9 32
2 47 -8 17 -3 38 21 96 16 41 30 81 29 90 0 11 -3 8 -9 -6 -10 -25 -18 -27
-38 -15 -9 7 -10 29 -3 100 7 63 6 101 -1 124 -43 129 -94 188 -278 321 -24
17 -24 17 -2 12 12 -4 22 -4 22 -2 0 3 -33 31 -72 63 -91 73 -139 119 -132
126 2 3 -9 19 -26 36 -16 17 -30 36 -30 44 0 8 3 9 8 3 4 -6 18 -16 32 -22 85
-41 138 -78 181 -125 53 -58 72 -62 34 -6 -13 19 -26 46 -28 59 -2 13 -2 18 0
12 3 -7 9 -13 14 -13 6 0 8 -4 5 -9 -3 -5 2 -12 11 -15 9 -4 20 -2 23 5 6 8 9
8 14 0 4 -6 2 -11 -3 -11 -6 0 -11 -7 -11 -15 0 -8 5 -15 10 -15 6 0 10 5 10
10 0 6 7 10 15 10 8 0 15 -7 15 -15 0 -9 6 -15 13 -14 31 5 83 -33 71 -52 -5
-9 1 -10 19 -5 14 3 29 2 32 -4 4 -6 -1 -7 -11 -3 -12 4 -15 2 -12 -8 3 -8 15
-13 27 -12 11 2 21 -2 21 -7 0 -5 10 -18 22 -30 12 -11 19 -22 16 -26 -10 -9
-59 28 -54 41 3 8 -4 10 -22 7 -15 -3 -21 -7 -14 -10 8 -2 29 -21 48 -41 28
-30 35 -34 44 -21 9 13 11 13 20 0 7 -11 5 -16 -5 -18 -17 -4 -20 -18 -5 -27
6 -3 17 1 26 10 15 15 15 19 -2 52 -23 43 -92 123 -106 123 -6 0 -43 33 -84
74 -40 41 -90 87 -111 102 -61 46 -88 73 -80 80 4 4 17 -1 30 -12 12 -11 40
-32 62 -46 22 -15 74 -57 116 -95 42 -37 92 -81 111 -98 39 -34 116 -141 143
-200 49 -108 -6 -420 -123 -695 -6 -14 -18 -52 -28 -85 -9 -33 -20 -64 -24
-70 -4 -5 -10 -22 -14 -37 -3 -16 -10 -28 -14 -28 -12 0 -14 58 -2 65 5 3 10
17 10 31 0 13 4 24 8 24 11 0 32 83 23 93 -9 10 -61 -114 -71 -173 -4 -25 -13
-72 -20 -105 -8 -40 -10 -103 -5 -190 6 -117 9 -137 37 -197 l32 -68 130 1
c106 1 125 3 99 11 -35 12 -44 28 -15 28 9 0 34 -4 55 -9 46 -11 202 11 247
34 17 9 62 48 101 88 51 53 72 68 80 60 9 -9 5 -18 -15 -38 -14 -14 -26 -28
-26 -30 0 -5 -59 -64 -65 -65 -20 -3 -46 -18 -46 -25 1 -6 -6 -10 -14 -10 -9
0 -20 -6 -24 -14 -5 -8 -36 -17 -72 -21 l-64 -7 66 -2 c39 0 70 4 77 11 9 9
12 9 12 0 0 -9 91 -12 381 -12 l380 0 44 30 c24 17 54 45 66 63 13 17 27 35
32 38 6 4 7 14 4 23 -4 10 -1 16 8 16 12 0 69 33 100 58 6 4 33 23 60 42 49
34 52 35 140 33 50 -2 122 -7 160 -11 67 -9 96 -2 125 28 12 12 51 30 66 30
26 0 12 -35 -16 -38 -14 -2 -42 -17 -62 -33 -35 -27 -39 -28 -89 -19 -28 6
-103 10 -165 10 -89 0 -119 -4 -143 -17 -17 -10 -31 -21 -31 -25 0 -5 -6 -8
-13 -8 -8 0 -22 -9 -32 -20 -10 -11 -23 -20 -29 -20 -6 0 -34 -25 -61 -56 -28
-31 -65 -72 -83 -90 l-33 -34 550 0 551 0 -5 43 c-4 23 -8 58 -10 77 l-5 35
14 -30 c8 -16 20 -51 27 -78 l12 -47 804 0 c763 0 805 1 798 18 -18 44 -46
140 -65 218 -11 46 -33 115 -48 152 -16 37 -39 105 -51 152 -62 236 -86 311
-124 380 -65 121 -67 124 -67 138 0 6 4 12 9 12 12 0 103 -143 146 -230 20
-41 50 -102 68 -135 17 -33 36 -70 42 -82 5 -13 13 -23 18 -23 4 0 7 -5 7 -11
0 -5 18 -36 40 -68 46 -69 67 -121 115 -290 37 -131 54 -171 88 -208 20 -23
22 -23 309 -23 l288 0 0 2900 0 2900 -2921 0 c-1994 0 -2926 -3 -2940 -10 -13
-7 -19 -7 -19 0 0 11 -80 14 -95 2 -6 -4 -16 -19 -22 -34 -15 -32 -38 -38 -30
-8 4 18 2 20 -16 14 -38 -11 -61 -39 -48 -60 10 -18 10 -18 11 3 0 30 20 40
37 18 18 -25 17 -45 -3 -45 -11 0 -14 -6 -9 -20 10 -31 -11 -24 -40 15 -31 39
-37 64 -22 83 9 11 6 13 -13 10 -20 -2 -25 -9 -24 -33 0 -16 -6 -35 -14 -41
-12 -9 -12 -15 -2 -33 6 -13 9 -25 6 -29 -3 -3 -6 0 -6 7 0 7 -4 10 -8 7 -5
-3 -22 8 -37 24 -31 33 -53 37 -88 18 -41 -24 -68 -52 -100 -108 -17 -30 -40
-64 -50 -75 -20 -20 -20 -20 -13 13 3 19 15 47 27 63 11 16 16 29 10 29 -6 0
-18 -12 -28 -27 -10 -16 -20 -30 -24 -33 -10 -8 -23 -53 -20 -69 1 -8 -1 -17
-6 -20 -20 -15 -81 -138 -89 -179 -3 -18 -10 -35 -15 -38 -5 -3 -9 -16 -9 -30
0 -14 -12 -48 -28 -76 -15 -28 -35 -65 -44 -82 -9 -17 -20 -59 -23 -93 -4 -35
-11 -63 -16 -63 -5 0 -9 -18 -9 -39 0 -22 -4 -42 -9 -45 -9 -6 -23 -119 -22
-174 1 -18 8 -47 17 -63 12 -24 15 -63 15 -182 -2 -194 17 -368 40 -383 5 -3
9 -16 9 -30 0 -13 5 -24 10 -24 6 0 10 -6 10 -14 0 -17 47 -112 72 -145 10
-13 18 -33 18 -45 0 -12 5 -27 11 -33 6 -6 7 -13 2 -16 -5 -4 -22 17 -38 46
-15 29 -37 70 -49 92 -28 50 -56 125 -56 148 0 9 -4 17 -10 17 -5 0 -12 17
-16 38 -4 20 -17 53 -28 72 -19 32 -21 50 -21 229 0 134 -3 186 -9 168 -6 -15
-13 -27 -18 -27 -11 0 -10 264 1 276 9 8 32 185 25 192 -4 5 -31 -92 -48 -173
-8 -38 -17 -153 -21 -254 -6 -187 -12 -241 -25 -241 -14 0 -20 62 -20 206 0
227 40 417 119 566 35 68 136 234 165 273 32 43 48 75 37 75 -5 0 -33 -33 -62
-72 -30 -40 -57 -74 -61 -76 -5 -2 -8 -9 -8 -17 0 -7 -7 -18 -15 -25 -13 -11
-14 -10 -8 6 57 151 334 487 404 490 59 3 67 5 73 21 4 9 1 20 -6 25 -10 6 -9
8 3 8 9 0 19 7 23 15 5 13 -264 15 -2379 15 l-2385 0 0 -1937z m4816 1750 c24
-16 44 -33 44 -40 0 -6 -26 -16 -57 -22 -125 -24 -177 -52 -189 -103 -3 -18
-13 -38 -22 -44 -16 -12 -51 -131 -52 -176 0 -15 -5 -30 -12 -34 -7 -5 -8 -3
-3 6 5 8 3 11 -6 8 -10 -3 -16 -37 -21 -129 -5 -68 -5 -131 -2 -139 4 -8 8
-22 9 -31 2 -22 67 -118 100 -149 53 -49 141 -261 150 -362 4 -38 10 -68 13
-68 4 0 14 -14 21 -32 18 -40 90 -120 102 -112 5 3 12 -2 15 -10 3 -9 12 -16
18 -16 13 0 56 -45 56 -58 0 -5 14 -21 30 -37 18 -17 30 -39 30 -54 1 -19 11
-33 36 -48 20 -13 38 -23 42 -23 4 0 18 -16 31 -36 20 -29 23 -39 14 -54 -7
-9 -15 -35 -19 -56 -3 -22 -11 -45 -17 -52 -8 -10 -7 -16 4 -23 10 -6 10 -9 1
-9 -7 0 -17 -10 -23 -23 -5 -12 -26 -33 -45 -46 -24 -17 -33 -29 -29 -41 4
-14 1 -16 -19 -13 -14 3 -48 0 -76 -7 -48 -12 -52 -11 -85 14 -20 15 -54 29
-82 33 -26 3 -56 15 -67 25 -11 10 -35 21 -53 24 -36 7 -123 78 -123 100 0 7
-11 25 -24 39 -19 21 -24 36 -23 69 1 30 -2 42 -10 39 -18 -7 -53 16 -53 35 0
10 -13 31 -30 47 -16 16 -30 34 -30 41 0 7 -11 24 -24 37 -22 22 -24 33 -31
189 -4 92 -4 185 0 207 5 32 2 48 -14 74 -24 39 -27 129 -6 192 7 22 18 81 25
130 6 50 18 104 25 120 42 95 65 158 80 218 19 77 27 94 71 154 17 23 37 56
44 73 7 16 16 30 21 30 5 0 9 5 9 10 0 13 129 144 150 153 32 12 65 6 106 -20z
m1530 -40 c35 -31 78 -80 96 -107 17 -28 50 -80 74 -116 28 -42 49 -88 58
-130 9 -36 34 -113 56 -172 30 -80 40 -121 40 -165 0 -32 9 -83 19 -113 30
-85 36 -163 17 -203 -12 -26 -17 -79 -20 -220 -5 -193 -16 -264 -42 -274 -8
-3 -13 -12 -10 -19 3 -8 -8 -27 -24 -43 -17 -15 -30 -37 -30 -49 0 -20 -31
-39 -57 -34 -9 2 -13 -12 -13 -47 0 -32 -5 -53 -14 -58 -7 -4 -22 -26 -32 -48
-22 -45 -95 -105 -128 -105 -13 0 -31 -9 -41 -20 -11 -12 -31 -20 -49 -20 -33
0 -109 -31 -120 -48 -4 -7 -42 -8 -104 -5 -111 5 -174 30 -198 76 -8 15 -19
27 -25 27 -6 0 -9 7 -6 15 4 8 2 17 -4 21 -12 7 -2 78 15 107 8 15 8 21 -2 24
-19 7 40 76 97 112 35 23 48 37 44 49 -2 10 5 26 16 36 12 11 21 25 21 32 0 7
6 17 14 21 7 4 21 22 29 40 10 19 41 46 77 68 93 57 130 122 133 233 1 33 7
63 15 71 8 8 11 24 8 37 -6 22 8 43 17 27 2 -5 2 -2 1 5 -3 11 28 66 56 99 5
7 10 16 10 21 0 5 22 33 50 63 27 30 62 79 76 109 24 49 27 68 30 179 2 124
-10 199 -26 156 -5 -15 -10 -5 -19 40 -7 33 -15 79 -18 103 -4 31 -12 47 -29
59 -13 8 -24 25 -24 37 0 48 -79 96 -166 102 -74 6 -84 9 -84 28 0 19 78 55
118 56 27 0 46 -11 98 -57z m-2549 -1109 c2 -6 -27 -21 -64 -32 -38 -12 -85
-33 -105 -47 -20 -14 -42 -25 -47 -25 -6 0 -11 -3 -11 -7 0 -5 -19 -17 -43
-28 -48 -22 -130 -75 -135 -87 -2 -4 -8 -8 -14 -8 -25 0 -70 -70 -58 -90 15
-24 12 -55 -10 -83 -28 -35 -25 -42 9 -18 16 12 43 24 60 27 17 4 34 11 37 15
3 5 14 9 25 9 10 0 27 4 37 9 9 5 33 16 52 24 19 8 56 24 82 36 26 12 49 21
52 21 3 0 14 6 23 14 89 72 308 226 322 226 26 0 -3 -38 -48 -64 -29 -17 -135
-89 -141 -96 -3 -4 -20 -15 -37 -25 -18 -11 -33 -23 -33 -27 0 -4 -4 -8 -9 -8
-5 0 -69 -39 -143 -86 -73 -48 -146 -94 -162 -103 -15 -9 -52 -30 -82 -48 -86
-51 -64 -2 26 58 33 22 19 34 -17 15 -44 -23 -101 -84 -108 -115 -4 -19 2 -46
18 -82 37 -83 37 -85 21 -151 -12 -47 -13 -67 -5 -80 6 -10 11 -40 11 -67 0
-38 5 -53 20 -64 28 -19 39 -85 40 -232 2 -151 12 -179 74 -200 21 -8 43 -18
49 -24 6 -6 39 -11 74 -11 50 0 67 4 83 20 27 27 74 26 100 -2 11 -12 20 -25
20 -28 0 -3 17 -16 39 -28 51 -29 118 -97 142 -145 29 -56 18 -67 -15 -16 -43
64 -65 85 -124 114 -29 14 -59 37 -68 50 -24 36 -51 41 -87 15 -27 -21 -37
-22 -116 -17 -78 5 -150 22 -167 40 -14 14 -24 -6 -24 -49 0 -26 -9 -62 -21
-86 -23 -46 -21 -80 11 -150 11 -24 20 -59 20 -78 0 -31 10 -45 70 -105 39
-38 70 -76 70 -84 0 -24 41 -101 53 -101 11 0 37 -44 37 -62 0 -5 11 -21 25
-36 14 -15 25 -32 25 -38 0 -7 13 -26 29 -43 26 -27 35 -31 85 -31 54 0 55 -1
87 -46 29 -43 31 -50 20 -79 -16 -44 -14 -69 7 -94 15 -18 30 -21 117 -22 55
-2 109 -6 120 -10 11 -4 46 -32 78 -63 l58 -56 68 0 c54 0 72 -4 89 -20 26
-24 28 -40 7 -40 -8 0 -15 4 -15 9 0 14 -38 24 -66 17 -34 -9 -32 -50 6 -93
31 -35 37 -57 20 -68 -35 -22 20 -135 85 -175 19 -12 50 -42 69 -68 19 -26 49
-61 68 -77 42 -39 122 -77 157 -75 49 4 81 0 81 -8 0 -11 -117 -9 -145 2 -49
19 -84 43 -132 91 -29 29 -53 56 -53 60 0 8 -26 35 -34 35 -12 0 -96 62 -96
72 0 5 -10 23 -21 40 -24 33 -27 81 -9 103 10 12 5 23 -24 57 -20 23 -36 52
-36 64 0 52 -96 72 -225 47 -130 -26 -149 -26 -262 1 -59 15 -119 29 -131 32
-31 6 -215 6 -317 0 -81 -6 -77 -2 20 23 65 16 282 23 395 12 58 -6 168 -15
245 -21 76 -6 144 -15 150 -20 6 -5 17 -5 25 1 12 7 7 17 -27 49 -38 36 -44
39 -68 28 -19 -9 -28 -9 -37 0 -7 7 -42 12 -83 12 -76 0 -89 6 -124 57 -21 31
-21 35 -7 75 21 65 -8 104 -74 99 -52 -3 -93 20 -123 71 -14 24 -35 54 -47 68
-12 14 -26 35 -31 48 -5 12 -17 22 -28 22 -25 0 -36 18 -32 53 1 17 -3 29 -13
33 -9 3 -16 17 -16 30 0 12 -6 27 -12 31 -7 4 -41 38 -76 75 -56 59 -62 70
-52 88 9 17 7 28 -11 58 -16 25 -25 59 -29 106 -5 66 -6 69 -22 53 -9 -10 -45
-32 -80 -51 -50 -27 -72 -47 -108 -99 -25 -35 -74 -96 -108 -135 l-62 -70 0
-160 c0 -97 4 -163 10 -167 16 -10 12 -47 -10 -83 -27 -45 -25 -78 10 -145 22
-42 30 -72 30 -109 0 -55 18 -128 32 -128 4 0 8 -7 8 -15 0 -8 4 -15 8 -15 5
0 16 -15 24 -34 9 -19 29 -40 45 -48 103 -53 148 -84 198 -134 18 -18 39 -29
50 -28 11 2 43 7 70 13 28 5 57 5 65 0 11 -6 9 -8 -10 -9 -33 0 -100 -19 -100
-28 0 -4 18 -18 40 -32 22 -14 40 -28 40 -31 0 -4 19 -19 43 -34 53 -35 149
-127 179 -171 13 -19 35 -39 50 -45 18 -7 27 -18 27 -33 0 -11 2 -32 6 -46 5
-15 -9 -2 -34 33 -50 70 -206 227 -225 227 -8 0 -16 3 -18 8 -6 13 -120 102
-132 102 -6 1 -36 24 -67 53 -31 29 -70 59 -85 67 -16 8 -31 17 -34 20 -3 3
-27 19 -54 34 -47 27 -50 28 -63 10 -12 -16 -13 -16 -13 -1 0 10 -12 41 -26
69 -15 29 -33 94 -43 152 -10 55 -30 129 -44 163 -32 75 -32 78 -7 126 18 34
20 46 12 105 -6 37 -7 128 -4 203 l5 136 68 74 c38 40 69 79 69 86 0 7 5 13
10 13 6 0 10 7 10 15 0 8 5 15 10 15 6 0 10 5 10 11 0 30 71 89 106 89 8 0 14
5 14 10 0 6 6 10 13 10 6 0 34 20 61 45 40 37 47 50 43 72 -3 14 3 56 13 92
22 78 22 89 2 249 -14 117 -16 124 -44 144 -27 19 -29 25 -24 60 4 22 4 43 1
48 -8 13 -35 0 -35 -16 0 -25 -144 -159 -160 -149 -4 2 -16 -5 -26 -16 -15
-16 -19 -36 -18 -85 1 -66 -9 -77 -21 -22 -20 94 6 149 94 202 80 49 94 67 93
121 0 25 -5 51 -10 58 -26 32 -52 91 -52 117 0 36 29 112 46 123 7 4 15 20 19
37 4 16 26 55 51 86 49 64 51 71 27 89 -15 11 -15 15 0 46 8 19 28 46 44 60
27 26 258 179 269 179 3 0 19 9 35 21 16 11 29 17 29 13 0 -4 10 2 23 13 12
11 37 26 55 34 17 8 32 18 32 22 0 12 73 4 77 -9z m296 -211 c11 -71 18 -108
27 -128 5 -11 11 -31 13 -45 3 -14 17 -61 32 -105 41 -121 43 -132 50 -245 3
-58 10 -143 16 -190 7 -54 7 -94 1 -110 -7 -20 -12 -3 -26 90 -32 219 -44 285
-82 435 -28 108 -34 139 -44 210 -12 90 -12 138 -1 131 5 -3 11 -23 14 -43z
m3527 -3 c8 -11 20 -20 27 -20 7 0 13 -6 13 -12 0 -7 25 -40 55 -73 57 -62 65
-79 40 -89 -29 -11 -14 -40 50 -102 36 -34 65 -71 65 -81 0 -11 5 -24 11 -30
17 -17 1 -73 -21 -73 -24 0 -34 -33 -19 -62 6 -13 31 -48 54 -78 72 -94 88
-128 74 -161 -10 -26 -8 -33 16 -65 l27 -36 -27 -28 c-25 -26 -26 -32 -21 -96
12 -154 35 -322 50 -363 9 -24 16 -63 16 -87 0 -40 4 -47 42 -75 59 -42 103
-61 181 -76 31 -6 57 -23 57 -38 0 -8 3 -15 8 -15 4 0 15 -15 25 -33 10 -18
57 -73 104 -122 l85 -88 -6 -56 c-19 -178 -44 -276 -87 -334 -14 -19 -19 -36
-14 -50 21 -68 18 -95 -15 -129 -47 -49 -120 -153 -120 -171 0 -9 -4 -19 -10
-22 -5 -3 -10 -15 -10 -26 0 -10 -3 -19 -8 -19 -4 0 -13 -14 -20 -30 -8 -17
-18 -30 -23 -30 -6 0 -6 7 0 18 21 39 51 113 51 125 0 12 42 80 64 103 64 67
76 86 76 118 0 19 -4 38 -10 41 -17 11 -11 45 15 82 32 48 52 115 73 250 l18
112 -63 63 c-35 35 -83 89 -106 122 -67 93 -78 102 -126 109 -24 3 -66 17 -93
31 -34 18 -50 22 -52 13 -2 -6 -11 -46 -20 -87 -12 -52 -24 -82 -41 -99 -19
-17 -25 -34 -25 -65 0 -39 -6 -48 -105 -150 -58 -60 -105 -115 -105 -122 0 -7
-13 -28 -29 -47 -17 -19 -31 -47 -33 -67 -3 -30 -7 -35 -40 -43 -24 -6 -40
-16 -44 -29 -3 -11 -32 -50 -63 -86 -31 -37 -67 -83 -79 -103 -30 -50 -85 -83
-166 -102 -51 -12 -77 -24 -101 -47 -31 -30 -33 -35 -28 -88 4 -57 4 -57 -45
-109 -46 -48 -52 -51 -98 -52 -27 0 -73 4 -102 10 -39 8 -57 8 -67 -1 -11 -9
-20 -7 -41 9 -31 24 -64 28 -64 6 0 -8 7 -15 15 -15 16 0 19 -9 9 -34 -4 -10
-18 -16 -40 -16 -24 0 -36 -5 -40 -18 -11 -34 -21 -47 -47 -60 -28 -14 -34
-27 -17 -37 6 -3 10 -23 10 -43 0 -30 -6 -42 -34 -64 -22 -17 -47 -28 -66 -28
-37 0 -37 23 0 28 32 5 73 52 67 77 -20 84 -20 80 10 95 33 18 43 29 43 52 0
26 -61 78 -92 78 -19 0 -28 5 -28 16 0 13 6 15 27 9 15 -3 30 -10 33 -14 9
-14 97 -61 113 -61 21 0 22 16 2 24 -26 10 -16 33 18 41 37 8 61 8 214 5 99
-3 115 -1 134 16 31 28 49 68 38 85 -20 32 -9 73 31 116 52 55 79 73 110 73
54 0 106 23 145 64 61 63 117 134 147 185 14 25 39 53 55 62 15 8 29 25 31 36
2 11 14 31 28 44 13 12 24 33 24 46 0 16 29 52 94 117 99 99 116 121 116 158
0 23 7 37 47 109 30 52 38 111 20 151 -16 35 -29 98 -29 136 0 20 -4 23 -22
17 -11 -3 -28 -7 -36 -7 -20 -1 -50 -28 -50 -45 0 -7 -7 -13 -15 -13 -18 0
-18 0 -1 42 18 41 40 62 60 55 8 -3 20 0 26 7 11 15 6 69 -24 246 -40 239 -39
221 -16 244 25 28 25 28 -6 77 -24 39 -25 42 -8 60 20 22 13 42 -44 118 l-34
45 7 85 c12 154 14 149 -53 211 -64 60 -83 103 -61 139 11 17 10 23 -4 39 -9
10 -17 22 -17 26 0 4 -16 23 -35 43 -34 35 -43 53 -27 53 4 0 14 -9 22 -20z
m-4753 -89 c43 -8 99 -38 89 -48 -3 -3 -23 2 -46 11 -61 24 -338 22 -442 -3
-42 -11 -91 -26 -109 -35 -18 -9 -38 -16 -46 -16 -7 0 -13 -3 -13 -8 0 -4 -14
-13 -31 -21 -17 -8 -78 -45 -135 -84 -100 -67 -141 -84 -92 -37 64 61 287 190
328 190 9 0 20 4 26 9 37 34 363 63 471 42z m-769 -344 c9 -9 31 -17 47 -19
49 -5 29 -23 -28 -24 -148 -4 -278 -23 -412 -59 -33 -9 -73 -20 -90 -25 -41
-10 -118 -41 -129 -52 -6 -4 -18 -8 -28 -8 -10 0 -18 -4 -18 -9 0 -5 -8 -11
-17 -15 -22 -7 -77 -39 -97 -56 -9 -6 -20 -9 -25 -5 -6 3 -8 0 -5 -9 3 -8 -2
-17 -13 -20 -11 -3 -39 -27 -64 -52 -109 -111 -144 -140 -226 -182 -49 -24
-95 -51 -104 -58 -8 -8 -19 -14 -22 -14 -19 0 -195 -171 -247 -240 -19 -25
-37 -47 -41 -50 -3 -3 -14 -20 -23 -38 -12 -23 -22 -32 -33 -28 -11 5 -14 2
-9 -9 3 -9 -8 -46 -24 -82 -17 -36 -30 -74 -30 -84 0 -10 -12 -46 -26 -81 -35
-85 -39 -94 -64 -163 -33 -91 -35 -96 -59 -149 -13 -28 -27 -86 -32 -130 -14
-125 -26 -167 -70 -232 -35 -52 -48 -102 -60 -229 -12 -141 -20 -184 -32 -192
-14 -9 -1 156 24 287 11 58 22 119 25 137 4 20 11 30 19 27 8 -3 16 11 23 38
30 115 42 172 42 199 0 16 4 37 10 47 23 42 81 226 77 244 -4 13 -1 18 7 15 9
-4 18 9 26 34 7 21 17 39 22 39 13 0 9 35 -7 56 -17 22 -19 44 -5 44 6 0 10
-9 10 -19 0 -11 5 -23 12 -27 8 -5 9 -1 5 14 -4 12 -10 32 -14 44 -8 28 15 15
27 -16 8 -19 9 -19 9 7 1 15 -3 27 -9 27 -5 0 -10 10 -10 23 1 20 2 20 11 5
13 -23 29 -23 29 0 0 10 5 23 11 29 6 6 9 19 6 29 -4 16 -5 16 -6 -2 -1 -27
-31 -55 -31 -30 0 9 5 16 10 16 6 0 10 7 10 16 0 9 30 64 67 121 46 74 69 100
75 91 5 -9 7 -5 6 12 -2 15 2 24 9 23 7 -2 10 4 7 12 -4 8 -2 15 3 15 5 0 26
24 47 54 59 86 272 299 371 372 114 83 248 162 345 203 41 18 90 38 108 46 37
17 162 52 237 67 189 38 341 44 373 15z m627 1 c0 -8 7 -25 16 -39 27 -42 28
-56 19 -196 -9 -114 -14 -145 -36 -189 -37 -75 -65 -103 -98 -97 -24 5 -26 3
-26 -31 0 -21 5 -46 10 -57 8 -15 6 -30 -11 -67 -13 -26 -23 -51 -23 -57 -1
-5 -7 -14 -14 -19 -8 -4 -20 -22 -28 -40 -17 -37 -34 -65 -52 -84 -45 -49 -48
-79 -26 -306 3 -38 2 -77 -4 -90 -5 -11 -22 -47 -37 -80 -23 -50 -26 -67 -20
-112 5 -45 2 -61 -22 -113 -25 -55 -31 -61 -59 -61 l-31 0 -1 -157 c-2 -167 7
-225 45 -310 12 -30 23 -64 23 -78 0 -28 16 -68 42 -106 38 -57 32 -337 -8
-366 -10 -7 -28 -13 -40 -13 -30 0 -34 -12 -76 -230 -5 -30 -15 -67 -20 -82
-10 -28 -7 -76 10 -158 12 -60 20 -79 49 -117 24 -33 65 -45 78 -23 8 12 112
13 119 1 3 -4 -28 -11 -70 -13 -80 -5 -117 -24 -97 -50 6 -7 13 -29 16 -48 11
-70 63 -268 77 -293 6 -10 8 -22 5 -27 -9 -15 -35 1 -35 21 0 11 -4 27 -9 37
-5 9 -14 36 -20 60 -6 23 -15 59 -21 80 -5 20 -18 77 -29 126 -11 48 -30 105
-43 125 -38 58 -45 81 -59 173 -9 65 -9 98 -1 125 6 21 15 63 21 93 6 30 13
69 16 85 23 120 40 154 78 162 40 8 48 36 48 169 0 104 -2 116 -25 151 -14 21
-30 61 -36 88 -6 28 -24 84 -40 125 -36 93 -57 244 -40 294 7 23 8 47 1 77
-29 131 -20 170 35 149 46 -18 64 15 64 116 0 72 4 89 31 140 31 59 31 59 24
169 -17 252 -20 219 30 291 25 35 45 70 45 78 0 7 7 19 15 26 37 31 47 74 41
188 -7 123 -3 142 28 142 14 0 26 10 35 33 8 17 34 62 58 100 24 37 43 75 43
85 0 10 -11 41 -25 68 -28 55 -30 72 -14 108 18 39 74 58 74 24z m6521 -23
c119 -24 156 -33 209 -55 11 -5 46 -18 77 -29 111 -40 362 -177 381 -208 9
-15 -28 -78 -46 -78 -9 0 -43 25 -75 56 -97 95 -166 145 -248 179 -103 43
-262 86 -347 94 -38 4 -88 13 -110 21 -23 8 -65 15 -94 15 -58 0 -86 8 -77 21
11 19 199 9 330 -16z m-961 -52 c4 9 12 17 17 17 6 0 3 -11 -6 -25 -9 -13 -16
-31 -16 -40 0 -18 20 -21 20 -2 1 17 29 52 36 44 4 -3 -5 -31 -19 -60 -22 -47
-25 -65 -22 -143 3 -113 30 -174 76 -174 22 0 29 5 29 20 0 20 -27 73 -62 123
-15 21 -18 31 -9 40 8 8 11 5 11 -11 0 -12 5 -22 10 -22 6 0 10 -6 10 -14 0
-8 4 -16 8 -18 4 -1 17 -25 29 -53 15 -35 29 -52 45 -55 23 -6 23 -8 23 -136
0 -118 2 -132 23 -161 12 -17 22 -34 22 -37 0 -9 63 -100 98 -141 l34 -40 -6
-110 c-3 -60 -8 -139 -12 -175 -6 -63 -5 -67 32 -130 36 -61 39 -70 40 -145 0
-118 30 -157 109 -149 l44 5 -5 -183 c-6 -226 -21 -286 -98 -383 -32 -40 -66
-104 -66 -123 0 -6 -22 -29 -48 -52 -46 -38 -50 -45 -61 -109 -7 -38 -10 -89
-6 -113 3 -23 7 -50 9 -59 4 -29 25 -47 64 -54 79 -14 95 -38 142 -225 18 -69
39 -137 46 -152 19 -36 18 -67 -5 -130 -10 -29 -22 -66 -26 -82 -3 -16 -28
-50 -54 -77 -39 -40 -50 -59 -63 -111 -15 -64 -24 -74 -43 -44 -7 12 -6 19 4
25 9 6 12 23 10 55 -3 32 0 46 8 46 7 0 32 19 56 43 36 35 49 57 72 131 26 83
27 90 12 116 -9 14 -32 84 -52 156 -51 183 -68 214 -117 214 -43 0 -93 24 -95
46 -1 10 -6 47 -12 81 -6 39 -6 85 -1 125 5 35 10 67 10 71 0 5 22 32 49 60
27 29 61 77 75 107 14 30 43 80 66 111 22 30 43 66 47 80 4 13 7 83 8 154 0
72 4 145 9 164 10 40 -2 51 -54 51 -33 0 -39 5 -70 58 -31 52 -34 63 -32 130
2 68 0 77 -43 159 -27 50 -43 93 -40 102 10 25 35 200 35 242 0 30 -13 58 -65
134 -36 53 -65 103 -65 110 0 7 -7 18 -15 25 -9 7 -25 34 -37 59 -19 43 -20
46 -3 77 9 17 15 44 13 60 -3 26 -7 29 -40 29 -43 1 -54 12 -93 94 -24 49 -27
69 -31 203 -3 102 0 156 7 171 12 21 12 21 19 2 7 -18 8 -19 15 -2z m-6106
-12 c24 -16 1 -31 -47 -31 -38 0 -54 -6 -82 -31 -35 -30 -36 -30 -110 -23
-151 14 -172 11 -268 -45 -19 -11 -41 -26 -50 -33 -20 -16 -57 -34 -92 -44
-27 -7 -113 -63 -118 -76 -2 -4 -8 -8 -14 -8 -5 0 -15 -6 -22 -13 -13 -13 -72
-63 -165 -140 -65 -54 -91 -88 -91 -118 0 -14 -3 -29 -7 -33 -4 -3 -8 -13 -9
-21 -4 -26 -45 -75 -87 -103 -51 -35 -105 -62 -124 -62 -22 0 -86 -44 -123
-86 -19 -21 -71 -95 -114 -164 -167 -264 -178 -275 -169 -167 3 34 10 70 14
79 5 9 9 28 9 42 0 14 5 28 10 31 6 3 10 16 10 29 0 12 4 26 8 32 5 5 17 32
27 59 34 93 125 206 225 280 19 15 73 44 119 66 92 44 265 186 316 259 42 60
107 116 169 144 31 14 63 26 70 26 7 0 44 13 82 28 194 80 354 117 534 125 36
2 70 4 75 5 6 1 16 -2 24 -7z m-9 -89 c0 -4 -4 -12 -9 -17 -5 -6 -14 -28 -21
-50 -7 -22 -21 -55 -32 -73 -10 -18 -18 -42 -18 -53 0 -15 -5 -19 -15 -15 -10
4 -15 -1 -15 -14 0 -13 5 -18 15 -14 15 6 21 -7 9 -19 -12 -11 -44 13 -44 33
0 28 -63 53 -115 45 -49 -8 -99 -30 -142 -61 -17 -13 -35 -24 -39 -24 -4 0
-17 -11 -30 -25 -13 -14 -28 -25 -34 -25 -6 0 -8 -4 -5 -10 3 -5 0 -10 -7 -10
-7 0 -45 -26 -85 -58 -40 -31 -90 -69 -111 -84 -22 -14 -63 -55 -91 -90 -28
-34 -56 -69 -62 -76 -18 -22 -4 -23 19 -2 12 11 32 20 46 20 14 0 27 4 30 9 6
10 49 8 84 -3 13 -4 22 -15 22 -28 0 -27 -156 -178 -309 -298 -71 -56 -91 -77
-91 -95 0 -8 -4 -15 -8 -15 -8 0 -28 -61 -52 -157 -6 -24 -15 -43 -20 -43 -6
0 -10 -6 -10 -14 0 -14 -81 -175 -131 -261 -16 -27 -46 -81 -65 -120 -20 -38
-40 -72 -45 -75 -4 -3 -17 -25 -27 -48 -21 -48 -93 -151 -105 -152 -4 0 -15
-8 -25 -17 -10 -10 -36 -33 -59 -52 -23 -19 -44 -42 -46 -53 -5 -19 13 -22
127 -20 63 2 49 -14 -19 -21 -99 -11 -171 -25 -208 -40 -33 -14 -39 -15 -44
-2 -3 9 -1 21 4 28 5 6 27 66 47 132 21 66 46 139 57 162 10 24 19 45 19 48 0
6 51 86 60 95 3 3 26 30 51 60 52 61 82 117 129 235 29 71 42 89 121 165 83
81 123 125 179 200 59 79 133 158 190 205 33 28 71 58 83 68 12 10 38 28 59
39 38 22 49 38 25 38 -7 0 -44 -16 -83 -35 -38 -19 -77 -35 -86 -35 -10 0 -18
-3 -18 -7 0 -5 -17 -16 -38 -25 -125 -57 -152 -68 -200 -83 -42 -14 -55 -15
-67 -5 -12 10 -15 10 -15 -3 0 -8 -6 -18 -12 -21 -7 -3 -3 -3 9 -1 12 3 24 1
28 -5 4 -7 -2 -14 -14 -17 -34 -9 -18 -28 22 -28 20 0 37 3 37 6 0 4 10 9 23
13 12 3 33 15 47 28 32 30 24 11 -41 -100 -53 -90 -103 -146 -153 -172 -15 -8
-45 -31 -65 -51 -35 -35 -48 -56 -71 -114 -5 -14 -14 -35 -19 -47 -5 -13 -17
-45 -27 -72 -19 -51 -71 -113 -139 -162 -53 -38 -62 -50 -89 -109 -23 -51 -36
-101 -56 -215 -25 -140 -52 -242 -65 -245 -5 -1 -41 -13 -78 -25 -37 -12 -71
-20 -74 -16 -4 3 -1 16 5 29 6 12 13 38 15 57 28 207 59 351 97 445 5 11 13
47 19 80 24 137 34 173 64 229 37 68 63 87 52 38 -3 -17 -2 -39 3 -48 13 -23
29 1 130 186 20 36 41 75 46 87 6 13 14 23 19 23 4 0 7 5 7 10 0 15 104 169
142 211 46 50 90 78 161 103 34 12 68 26 76 30 10 6 12 5 7 -2 -10 -16 -2 -15
49 8 24 11 49 28 54 38 6 9 11 13 11 8 0 -19 69 69 114 147 16 26 26 54 23 61
-8 21 10 79 33 108 37 48 154 118 218 131 34 7 64 16 68 20 4 4 14 7 22 7 8 0
60 30 116 67 109 71 124 75 241 61 45 -6 57 -3 120 32 71 38 95 46 95 32z
m164 -18 c19 -18 21 -71 5 -111 -7 -15 -13 -35 -14 -43 -2 -24 -29 -80 -37
-80 -4 0 -8 -6 -8 -14 0 -15 -55 -66 -72 -66 -6 0 -3 12 7 26 9 14 15 35 12
45 -3 10 -1 19 3 19 4 0 6 10 3 23 -4 19 -2 18 12 -5 18 -33 25 -35 25 -10 0
26 -40 68 -50 52 -4 -7 -12 -10 -18 -6 -5 3 -12 -8 -16 -26 -8 -41 -14 -33
-20 25 -7 70 31 129 109 170 38 20 40 20 59 1z m6864 -76 c19 -12 72 -49 117
-83 66 -50 93 -64 146 -75 129 -27 150 -46 272 -239 83 -133 140 -193 252
-265 88 -56 112 -93 53 -81 -18 3 -71 24 -116 46 -46 21 -90 39 -97 39 -22 0
-118 86 -175 157 -73 91 -85 103 -156 151 -33 22 -78 56 -100 75 -138 123
-175 151 -224 176 -30 16 -80 34 -110 41 -161 36 -173 50 -42 50 61 1 93 5
106 15 26 20 32 19 74 -7z m-2781 -404 c-3 -64 -8 -118 -11 -121 -11 -11 -26
50 -26 105 0 64 -8 102 -21 102 -5 0 -9 -72 -9 -160 0 -88 -4 -160 -9 -160
-15 0 -21 42 -21 160 -1 170 -18 116 -26 -83 -5 -118 -11 -170 -20 -178 -18
-15 -22 9 -27 169 -2 82 -8 137 -15 144 -9 9 -12 -22 -12 -128 0 -115 -4 -153
-21 -207 -11 -37 -24 -67 -29 -67 -18 0 -53 135 -57 225 -9 166 -30 115 -37
-87 -3 -85 -8 -163 -12 -172 -7 -19 -24 -22 -24 -3 -1 6 -5 57 -11 112 -12
110 -12 217 0 225 4 3 13 20 20 38 18 44 30 49 52 21 18 -23 19 -23 19 -3 0
26 22 46 45 42 11 -2 21 9 30 36 20 56 31 63 48 30 16 -30 16 -31 32 21 5 19
46 35 85 35 16 0 32 5 35 10 3 6 11 10 16 10 7 0 9 -40 6 -116z m-1723 86 c16
-6 28 -20 32 -37 10 -43 18 -50 24 -23 3 14 12 26 20 28 17 3 40 -41 40 -76 0
-22 1 -22 17 -7 16 16 18 16 35 -5 10 -12 18 -30 19 -39 0 -11 3 -9 9 7 5 12
15 22 22 22 13 0 41 -35 44 -55 0 -5 2 -16 2 -23 1 -7 7 -10 12 -7 20 12 -2
-321 -23 -341 -16 -16 -20 12 -26 175 -6 169 -15 217 -25 145 -4 -22 -11 -61
-17 -89 -6 -27 -13 -68 -16 -90 -3 -22 -9 -44 -14 -49 -5 -6 -9 -18 -9 -28 0
-10 -4 -18 -10 -18 -16 0 -23 46 -12 82 15 47 25 275 13 282 -12 8 -21 -65
-23 -184 -1 -52 -3 -99 -6 -104 -14 -26 -22 37 -22 177 0 122 -3 158 -12 155
-9 -3 -15 -48 -20 -153 -4 -82 -10 -155 -13 -163 -13 -35 -25 10 -31 118 -3
63 -8 129 -9 145 -2 17 -4 46 -5 65 l-2 35 -9 -30 c-5 -16 -7 -63 -4 -102 4
-45 2 -86 -5 -108 -24 -73 -32 -37 -28 135 3 180 3 179 52 160z m-658 -237
c-36 -140 -30 -262 19 -416 23 -74 55 -148 67 -157 3 -3 10 -17 13 -33 4 -15
11 -24 16 -21 5 3 9 0 9 -5 0 -19 -15 -12 -41 22 -49 61 -91 149 -114 240 -13
51 -27 100 -30 110 -4 9 -2 23 4 30 6 8 10 29 10 48 -1 19 4 71 11 116 19 126
4 153 -62 119 -16 -8 -28 -11 -28 -7 0 13 34 40 86 66 l49 25 3 -39 c2 -21 -4
-65 -12 -98z m998 92 c9 -13 16 -39 17 -57 l1 -33 12 38 c15 48 45 69 53 38 6
-22 18 -27 28 -11 19 31 61 -20 68 -84 5 -41 17 -61 17 -27 0 34 27 91 44 91
10 0 20 -16 27 -45 13 -51 29 -60 29 -15 0 19 5 30 14 30 17 0 26 -21 27 -63
l1 -32 12 35 c16 45 46 51 71 14 25 -38 34 -189 24 -392 -9 -169 -14 -198 -32
-166 -11 19 -13 49 -25 339 -7 158 -8 168 -21 137 -11 -25 -13 -66 -9 -175 6
-150 0 -287 -12 -287 -10 0 -29 154 -35 287 -3 61 -10 122 -15 135 -7 17 -9 1
-4 -57 9 -113 9 -357 0 -381 -16 -42 -25 18 -37 242 -13 269 -27 342 -28 146
-1 -86 -5 -131 -11 -127 -5 3 -11 21 -12 38 -1 31 -18 -182 -18 -233 0 -23 -1
-23 -17 -8 -14 14 -18 53 -25 244 -4 125 -10 229 -12 232 -2 2 -7 -56 -11
-128 -4 -72 -9 -129 -12 -127 -2 2 -7 24 -12 48 -7 37 -8 29 -9 -54 -1 -53 -4
-103 -8 -109 -16 -26 -23 34 -24 217 -1 208 -12 220 -29 35 -10 -106 -22 -153
-34 -134 -3 5 -8 81 -12 169 -4 113 -10 167 -21 182 -8 12 -14 31 -14 41 0 39
30 43 54 7z m984 -1 c2 -12 -5 -29 -15 -39 -15 -15 -18 -41 -21 -174 -2 -86
-5 -162 -8 -170 -10 -29 -23 6 -33 89 -23 183 -29 183 -30 0 -1 -172 -6 -220
-21 -220 -4 0 -13 34 -21 75 -7 41 -15 71 -18 66 -4 -5 -7 38 -8 95 -1 58 -6
112 -11 120 -6 10 -11 -64 -14 -197 -6 -213 -19 -301 -38 -254 -5 11 -10 76
-11 145 -1 69 -4 109 -6 90 -3 -19 -9 -39 -14 -44 -5 -6 -9 36 -9 110 0 65 -5
126 -10 134 -7 11 -10 1 -10 -35 0 -133 -23 -432 -34 -459 l-13 -31 -8 48 c-4
27 -6 115 -3 198 2 82 0 149 -4 149 -8 0 -10 -15 -12 -135 -2 -85 -16 -205
-26 -223 -12 -23 -21 153 -14 281 5 98 4 131 -9 167 -9 25 -17 43 -17 40 -1
-3 -3 -70 -6 -150 -11 -333 -13 -360 -34 -360 -17 0 -24 96 -25 305 0 185 2
214 19 248 23 47 59 52 74 10 l9 -28 10 35 c13 47 40 52 45 8 l4 -33 14 44 c7
23 20 45 27 48 23 9 42 -29 43 -82 1 -41 3 -45 10 -25 5 14 11 41 15 60 8 49
41 87 63 74 13 -8 20 -6 32 9 15 18 17 18 33 2 9 -9 17 -25 17 -36 0 -10 5
-19 10 -19 6 0 10 11 10 25 0 52 61 87 68 39z m-1383 -546 c36 -69 65 -136 65
-149 0 -13 9 -69 20 -124 34 -167 34 -169 22 -161 -7 4 -12 15 -12 25 0 9 -4
21 -8 27 -5 5 -14 29 -21 54 -7 25 -17 59 -22 76 -5 17 -9 43 -9 59 0 40 -43
160 -89 247 -21 40 -42 84 -46 98 l-7 25 20 -26 c12 -15 51 -83 87 -151z m254
-53 c-6 -27 -14 -72 -20 -99 -11 -60 -7 -67 15 -24 18 37 40 68 49 68 8 0 -4
-73 -14 -84 -11 -12 -10 -71 1 -106 7 -21 8 -19 9 18 2 73 20 46 24 -35 2 -55
6 -71 11 -55 12 32 28 27 24 -8 -2 -19 3 -34 11 -39 10 -7 12 -18 7 -42 -4
-19 -10 -49 -13 -67 -10 -67 -38 -137 -55 -140 -11 -2 -18 3 -18 12 0 22 53
181 62 184 11 5 10 40 -2 47 -5 3 -10 -3 -10 -15 0 -33 -29 -79 -50 -80 -3 0
-5 36 -5 80 1 44 -3 80 -7 80 -4 0 -8 -9 -8 -19 0 -24 -12 -32 -30 -21 -13 8
-11 25 17 100 3 8 -1 7 -9 -4 -10 -13 -21 -17 -33 -13 -17 7 -17 25 2 73 4 11
3 15 -4 11 -6 -4 -16 0 -22 7 -12 14 -3 71 19 121 4 11 16 41 27 67 22 59 35
49 22 -17z m1231 47 c0 -10 4 -22 9 -27 5 -6 19 -40 31 -76 23 -70 24 -126 2
-121 -9 2 -12 -4 -8 -18 3 -11 9 -29 12 -40 8 -28 -22 -37 -46 -15 -26 23 -25
15 1 -30 22 -36 21 -52 -3 -42 -27 10 -43 56 -31 88 6 16 7 31 3 34 -5 3 -6
13 -3 21 3 9 1 19 -4 23 -5 3 -13 27 -16 53 -8 61 9 56 42 -12 14 -27 27 -48
29 -45 2 2 -3 32 -11 67 -24 98 -31 158 -18 158 6 0 11 -8 11 -18z m-1070
-539 c0 -4 -9 -40 -20 -80 -16 -54 -18 -78 -10 -92 5 -11 7 -27 4 -35 -4 -9
-1 -16 6 -16 9 0 11 11 6 39 -6 40 7 65 18 35 17 -45 -1 -255 -23 -262 -11 -4
-13 9 -9 70 3 40 1 83 -3 93 -6 16 -8 14 -8 -12 -1 -30 -16 -52 -28 -40 -8 9
-7 50 1 70 6 13 3 17 -13 17 -12 0 -24 7 -28 16 -7 20 77 203 95 204 6 0 12
-3 12 -7z m1351 -347 c49 -61 78 -159 94 -314 5 -51 -13 -147 -45 -244 -17
-48 -30 -94 -30 -102 0 -8 -7 -22 -16 -31 -9 -8 -14 -22 -11 -29 3 -7 -1 -26
-8 -40 -8 -15 -17 -42 -21 -61 -6 -36 -18 -45 -28 -22 -4 6 -4 -5 -2 -25 3
-23 -2 -51 -13 -73 -18 -38 -31 -37 -31 3 0 17 4 23 15 18 9 -3 15 0 15 9 0 8
-4 15 -9 15 -16 0 -24 41 -13 64 64 134 117 296 133 404 6 47 9 129 6 185 -4
90 -9 110 -37 165 -18 34 -50 81 -71 103 -21 23 -36 45 -33 50 9 16 64 -23
105 -75z m-3481 -17 c15 -27 6 -36 -15 -15 -9 9 -21 14 -26 11 -13 -8 -11 -32
3 -41 7 -5 9 -2 5 9 -4 11 -2 14 9 10 7 -3 14 -9 14 -15 0 -5 9 -6 20 -3 13 4
20 2 20 -6 0 -12 -40 -69 -67 -97 -13 -14 -17 -32 -8 -32 3 0 14 8 25 18 10 9
32 25 49 35 30 18 31 18 31 -1 0 -11 6 -25 14 -31 8 -6 16 -24 18 -39 3 -15 9
-35 13 -44 13 -31 -14 -20 -30 12 -8 16 -15 32 -15 35 0 15 -1 21 -9 33 -7 11
-16 9 -48 -11 -47 -30 -77 -72 -70 -98 3 -10 -3 -30 -14 -43 -10 -13 -19 -31
-19 -38 0 -8 -10 -24 -22 -35 -35 -31 -48 -36 -48 -18 0 8 8 19 18 22 22 8 32
23 32 48 0 11 10 26 22 34 19 12 19 14 6 22 -19 11 -13 45 12 74 24 28 21 79
-5 83 -30 4 -137 -87 -178 -151 -21 -32 -10 -57 26 -57 31 0 14 -10 -27 -15
-23 -3 -36 -1 -36 6 0 27 25 96 44 124 12 17 28 43 36 60 8 16 31 45 50 65 34
34 138 109 152 110 4 0 12 -9 18 -21z m2288 -60 c2 -20 -4 -36 -15 -44 -15
-11 -16 -17 -4 -41 10 -23 14 -25 22 -13 7 10 8 6 3 -13 -4 -21 -1 -27 15 -33
12 -3 24 -18 27 -33 3 -15 12 -52 20 -83 24 -99 14 -168 -20 -140 -12 10 -16
34 -18 95 l-1 81 -7 -70 c-7 -80 -16 -105 -37 -105 -12 0 -14 19 -12 118 2 64
0 123 -5 130 -15 24 -26 11 -21 -25 2 -21 7 -70 10 -110 4 -59 2 -72 -12 -77
-9 -4 -18 -4 -20 -2 -11 11 -25 227 -18 281 8 63 9 63 20 1 4 -27 9 -35 15
-26 4 7 6 18 4 24 -2 6 5 29 16 51 11 21 20 45 20 52 0 27 16 11 18 -18z m602
-168 c0 -31 3 -93 6 -137 5 -58 3 -83 -5 -89 -24 -14 -40 28 -42 110 l-2 80
-9 -95 c-9 -97 -21 -128 -38 -100 -24 37 1 187 42 262 29 52 48 40 48 -31z
m-353 4 c29 -105 33 -126 33 -181 0 -33 -4 -64 -8 -70 -4 -5 -23 -10 -42 -10
-33 1 -35 3 -42 46 -11 59 -29 117 -49 160 -17 34 -15 65 2 54 19 -11 72 -137
77 -182 4 -38 6 -42 13 -24 8 22 -5 164 -17 183 -8 14 6 84 15 73 4 -5 12 -27
18 -49z m104 -72 c-14 -132 -14 -156 -1 -148 6 3 10 18 10 33 0 15 5 43 10 62
11 42 68 135 77 126 3 -3 -6 -42 -21 -86 -15 -44 -31 -102 -35 -128 l-6 -47
-40 0 -40 0 -3 65 c-4 69 12 162 36 220 22 51 25 24 13 -97z"/>
<path d="M785 3001 c-47 -12 -70 -27 -113 -76 -58 -65 -97 -149 -132 -282 -34
-126 -22 -134 35 -25 86 164 134 236 224 330 58 59 55 69 -14 53z"/>
<path d="M621 2468 c-17 -18 -31 -36 -31 -40 0 -4 -20 -38 -45 -75 -25 -38
-66 -99 -91 -136 -65 -97 -146 -302 -180 -457 -17 -80 -17 -90 -1 -90 14 0 26
26 82 175 84 223 84 223 146 271 59 45 63 52 74 132 3 24 9 51 14 60 5 9 14
28 19 42 48 109 62 143 62 146 0 13 -23 -1 -49 -28z"/>
</g>
</svg>
